<?xml version="1.0" encoding="UTF-8"?>
<svg width="1910px" height="552px" viewBox="0 0 1910 552" version="1.1" xmlns="http://www.w3.org/2000/svg" xmlns:xlink="http://www.w3.org/1999/xlink">
    <!-- Generator: Sketch 64 (93537) - https://sketch.com -->
    <title>Group 75 Copy 6</title>
    <desc>Created with Sketch.</desc>
    <g id="Page-1" stroke="none" stroke-width="1" fill="none" fill-rule="evenodd">
        <g id="Group-75-Copy-6" transform="translate(-1.000000, 0.000000)">
            <g id="Group-129" transform="translate(-0.000000, 0.000000)">
                <g id="Group-132" transform="translate(0.000000, -0.000000)">
                    <polygon id="Shape" fill="#216031" fill-rule="nonzero" transform="translate(148.664257, 100.488657) rotate(-540.000000) translate(-148.664257, -100.488657) " points="215.480158 48.724614 226.900927 68.505783 81.8483551 152.252699 70.4275862 132.47153"></polygon>
                    <polygon id="Shape" fill="#D9A300" fill-rule="nonzero" transform="translate(44.731034, 275.998753) rotate(-540.000000) translate(-44.731034, -275.998753) " points="56.1517241 192.252418 56.1517241 359.745088 33.3103448 359.745088 33.3103448 192.252418"></polygon>
                    <polygon id="Shape" fill="#AF1D26" fill-rule="nonzero" transform="translate(140.099015, 446.921771) rotate(-540.000000) translate(-140.099015, -446.921771) " points="73.2826677 395.158303 218.335961 478.903972 206.915362 498.68524 61.862069 414.939571"></polygon>
                    <polygon id="Shape" fill="#C12129" fill-rule="nonzero" transform="translate(343.767705, 99.769169) rotate(-540.000000) translate(-343.767705, -99.769169) " points="276.951803 48.0051267 422.004375 131.752043 410.583606 151.533212 265.531034 67.7862957"></polygon>
                    <path d="M425.098045,121.97566 C446.037366,109.886338 472.812373,117.060679 484.901695,138 C496.991018,158.939321 489.816677,185.714327 468.877356,197.80365 C465.511727,199.746796 461.995335,201.192268 458.413393,202.162897 L458.413793,359.745088 L435.572414,359.745088 L435.57263,202.154584 C428.309285,200.19297 421.547763,196.370525 416.064768,190.895368 L330.041599,240.560617 C330.882855,243.687387 331.546874,246.887207 332.02217,250.148725 L332.098428,250.706979 L332.164477,250.737828 C335.962954,252.542832 338.607039,256.383001 338.687496,260.849098 L338.689385,261.0589 C338.689385,267.296289 333.689164,272.365815 327.478496,272.477701 L327.268695,272.479589 L321.467367,272.479589 C315.332804,272.479589 310.313426,267.63868 310.056931,261.54446 L310.048253,261.248615 C309.505771,228.596185 283.117529,202.296182 250.533818,201.773447 L249.544557,201.765517 C243.237084,201.765517 238.123867,196.6523 238.123867,190.344828 C238.123867,184.037355 243.237084,178.924138 249.544557,178.924138 C279.866919,178.924138 306.44618,195.129151 321.03224,219.386378 L404.657869,171.104414 C399.705647,152.45831 407.590394,132.083707 425.098045,121.97566 Z M465.120481,149.42069 C459.338631,139.406232 446.533193,135.975025 436.518735,141.756875 C426.504277,147.538725 423.07307,160.344163 428.85492,170.358621 C434.63677,180.373079 447.442208,183.804285 457.456666,178.022435 C467.471124,172.240585 470.902331,159.435148 465.120481,149.42069 Z" id="Combined-Shape" fill="#D9A300" fill-rule="nonzero"></path>
                    <path d="M327.268695,249.637863 C356.974968,249.637863 381.05666,273.719556 381.05666,303.425828 C381.05666,314.852462 377.493566,325.446891 371.417825,334.158667 L416.818208,360.370274 C430.518921,347.33636 451.66885,344.261014 468.877356,354.19635 C489.816677,366.285673 496.991018,393.060679 484.901695,414 C472.812373,434.939321 446.037366,442.113662 425.098045,430.02434 C421.261662,427.809403 417.887335,425.101505 415.008881,422.026853 L281.710254,498.985807 L270.289655,479.20454 L404.301565,401.833458 C402.674342,394.697375 402.823005,387.143253 404.939098,379.885941 L353.680797,350.293361 C345.879161,354.699416 336.86756,357.213793 327.268695,357.213793 C320.961222,357.213793 315.848005,352.100576 315.848005,345.793103 C315.848005,339.555714 320.848227,334.486188 327.058894,334.374302 L327.268695,334.372414 C344.360022,334.372414 358.215281,320.517156 358.215281,303.425828 C358.215281,286.505414 344.635742,272.756672 327.780453,272.483389 L327.268695,272.479243 L321.467367,272.479243 C315.159894,272.479243 310.046677,267.366026 310.046677,261.058553 C310.046677,254.821163 315.046898,249.751638 321.257565,249.639752 L321.467367,249.637863 L327.268695,249.637863 Z M428.85492,381.641379 C423.07307,391.655837 426.504277,404.461275 436.518735,410.243125 C446.533193,416.024975 459.338631,412.593768 465.120481,402.57931 C470.902331,392.564852 467.471124,379.759415 457.456666,373.977565 C447.442208,368.195715 434.63677,371.626921 428.85492,381.641379 Z" id="Combined-Shape" fill="#216031" fill-rule="nonzero"></path>
                    <path d="M245.878684,464.441379 C221.700038,464.441379 202.099373,484.042044 202.099373,508.22069 C202.099373,532.399335 221.700038,552 245.878684,552 C270.057329,552 289.657994,532.399335 289.657994,508.22069 C289.657994,484.042044 270.057329,464.441379 245.878684,464.441379 Z M245.878684,487.282759 C257.442384,487.282759 266.816615,496.65699 266.816615,508.22069 C266.816615,519.78439 257.442384,529.158621 245.878684,529.158621 C234.314984,529.158621 224.940753,519.78439 224.940753,508.22069 C224.940753,496.65699 234.314984,487.282759 245.878684,487.282759 Z" id="Oval" fill="#AF1D26" fill-rule="nonzero" transform="translate(245.878684, 508.220690) rotate(-360.000000) translate(-245.878684, -508.220690) "></path>
                    <path d="M245.878684,7.03182532e-13 C221.700038,7.03182532e-13 202.099373,19.6006649 202.099373,43.7793103 C202.099373,67.9579558 221.700038,87.5586207 245.878684,87.5586207 C270.057329,87.5586207 289.657994,67.9579558 289.657994,43.7793103 C289.657994,19.6006649 270.057329,7.03182532e-13 245.878684,7.03182532e-13 Z M245.878684,22.8413793 C257.442384,22.8413793 266.816615,32.2156103 266.816615,43.7793103 C266.816615,55.3430103 257.442384,64.7172414 245.878684,64.7172414 C234.314984,64.7172414 224.940753,55.3430103 224.940753,43.7793103 C224.940753,32.2156103 234.314984,22.8413793 245.878684,22.8413793 Z" id="Oval-Copy-38" fill="#C12129" fill-rule="nonzero" transform="translate(245.878684, 43.779310) rotate(-360.000000) translate(-245.878684, -43.779310) "></path>
                    <path d="M22.8800121,354.19635 C1.94069094,366.285673 -5.23365034,393.060679 6.85567239,414 C18.9449951,434.939321 45.7200013,442.113662 66.6593225,430.02434 C87.5986437,417.935017 94.772985,391.160011 82.6836622,370.22069 C70.5943395,349.281368 43.8193333,342.107027 22.8800121,354.19635 Z M62.9024475,381.641379 C68.6842975,391.655837 65.2530908,404.461275 55.2386328,410.243125 C45.2241749,416.024975 32.4187371,412.593768 26.6368871,402.57931 C20.8550371,392.564852 24.2862438,379.759415 34.3007018,373.977565 C44.3151598,368.195715 57.1205975,371.626921 62.9024475,381.641379 Z" id="Oval" fill="#D9A300" fill-rule="nonzero" transform="translate(44.769667, 392.110345) rotate(-360.000000) translate(-44.769667, -392.110345) "></path>
                    <path d="M6.85567239,138 C-5.23365034,158.939321 1.94069094,185.714327 22.8800121,197.80365 C43.8193333,209.892973 70.5943395,202.718632 82.6836622,181.77931 C94.772985,160.839989 87.5986437,134.064983 66.6593225,121.97566 C45.9293945,110.007231 19.4799117,116.919118 7.22273726,137.375955 L6.85567239,138 Z M55.2386328,141.756875 C65.2530908,147.538725 68.6842975,160.344163 62.9024475,170.358621 C57.1205975,180.373079 44.3151598,183.804285 34.3007018,178.022435 C24.2862438,172.240585 20.8550371,159.435148 26.6368871,149.42069 C32.4187371,139.406232 45.2241749,135.975025 55.2386328,141.756875 Z" id="Oval" fill="#216031" fill-rule="nonzero" transform="translate(44.769667, 159.889655) rotate(-360.000000) translate(-44.769667, -159.889655) "></path>
                    <polygon id="Path" fill="#AF1D26" fill-rule="nonzero" transform="translate(246.195925, 411.946915) rotate(-360.000000) translate(-246.195925, -411.946915) " points="257.616615 342.52983 257.616615 481.364001 234.775236 481.364001 234.775236 342.52983"></polygon>
                    <polygon id="Path-Copy-12" fill="#C12129" fill-rule="nonzero" transform="translate(246.496552, 138.000000) rotate(-360.000000) translate(-246.496552, -138.000000) " points="257.917241 83.7517241 257.917241 192.248276 235.075862 192.248276 235.075862 83.7517241"></polygon>
                    <polygon id="Rectangle" fill="#D9A300" transform="translate(108.496552, 355.225340) rotate(-660.000000) translate(-108.496552, -355.225340) " points="97.0758621 319.694306 119.917241 319.694306 119.917241 390.756375 97.0758621 390.756375"></polygon>
                    <polygon id="Path" fill="#216031" fill-rule="nonzero" transform="translate(119.523209, 201.913749) rotate(-360.000000) translate(-119.523209, -201.913749) " points="60.1418025 180.817355 71.5624921 161.03614 178.904616 223.010144 167.483926 242.791359"></polygon>
                    <path d="M180.288069,231.349831 C186.595542,231.349831 191.708759,236.463048 191.708759,242.770521 C191.708759,249.00791 186.708538,254.077436 180.497871,254.189322 L180.288069,254.19121 L173.649222,254.19121 C151.507794,254.19121 133.558621,272.140384 133.558621,294.281812 C133.558621,316.201826 151.150606,334.013011 172.986251,334.367043 L173.649222,334.372414 C179.956695,334.372414 185.069912,339.485631 185.069912,345.793103 C185.069912,352.100576 179.956695,357.213793 173.649222,357.213793 C138.892849,357.213793 110.717241,329.038185 110.717241,294.281812 C110.717241,259.873002 138.332154,231.914001 172.608527,231.358262 L173.649222,231.349831 L180.288069,231.349831 Z" id="Shape" fill="#D9A300" fill-rule="nonzero" transform="translate(151.213000, 294.281812) rotate(-360.000000) translate(-151.213000, -294.281812) "></path>
                    <path d="M327.268695,334.372414 C333.576168,334.372414 338.689385,339.485631 338.689385,345.793103 C338.689385,352.030493 333.689164,357.100019 327.478496,357.211905 L327.268695,357.213793 L173.649222,357.213793 C167.34175,357.213793 162.228533,352.100576 162.228533,345.793103 C162.228533,339.555714 167.228754,334.486188 173.439421,334.374302 L173.649222,334.372414 L327.268695,334.372414 Z" id="Shape" fill="#AF1D26" fill-rule="nonzero" transform="translate(250.458959, 345.793103) rotate(-360.000000) translate(-250.458959, -345.793103) "></path>
                    <path d="M249.544557,178.924138 C271.326376,178.924138 291.815516,187.330185 307.22483,202.104435 C311.777719,206.469686 311.929829,213.699267 307.564578,218.252156 C303.253893,222.748134 296.150039,222.952665 291.588835,218.753484 L291.416858,218.591904 C280.21878,207.855333 265.37529,201.765517 249.544557,201.765517 C222.53133,201.765517 199.030063,219.624542 191.505763,245.087205 L191.282657,245.861118 C189.57582,251.933261 183.26971,255.47204 177.197567,253.765203 C171.125425,252.058366 167.586645,245.752257 169.293482,239.680114 C179.318446,204.015893 211.957962,178.924138 249.544557,178.924138 Z" id="Shape" fill="#C12129" fill-rule="nonzero" transform="translate(239.803007, 216.559179) rotate(-360.000000) translate(-239.803007, -216.559179) "></path>
                    <path d="M203.784475,205.617718 C208.408803,209.791869 208.826328,216.887922 204.764211,221.573349 L204.609781,221.747912 C198.414391,228.611468 193.857658,236.795944 191.327713,245.701674 C191.107161,246.539802 190.792527,247.339716 190.396763,248.09021 C189.692579,249.431724 188.740494,250.593001 187.615857,251.531917 L187.327496,251.764408 C187.247269,251.827534 187.165851,251.889419 187.083647,251.950185 C185.929289,252.806231 184.60808,253.449533 183.177703,253.822481 L182.70264,253.935481 C181.838448,254.123183 180.945745,254.211579 180.041314,254.191401 L173.649222,254.19121 C165.655127,254.19121 158.037627,256.524013 151.533843,260.836061 L151.166898,261.082251 C145.948378,264.625025 138.845944,263.266564 135.30317,258.048044 C131.760395,252.829523 133.118856,245.727089 138.337377,242.184315 C148.260965,235.447342 159.913729,231.661792 172.113369,231.368292 C175.770852,222.212397 181.035932,213.775152 187.65428,206.443024 C191.880608,201.760892 199.102343,201.39139 203.784475,205.617718 Z" id="Shape" fill="#216031" fill-rule="nonzero" transform="translate(170.441568, 232.864892) rotate(-360.000000) translate(-170.441568, -232.864892) "></path>
                </g>
                <g id="Group-130" transform="translate(225.075807, 268.541668) rotate(-360.000000) translate(-225.075807, -268.541668) translate(110.717241, 178.924138)"></g>
            </g>
            <path d="M1254.53867,133 C1339.99601,133 1401.31926,196.609636 1401.31926,275.233904 L1401.31926,276.023498 C1401.31926,354.647766 1339.20505,419.046995 1253.74771,419.046995 C1168.29037,419.046995 1106.96712,355.437359 1106.96712,276.814464 L1106.96712,276.023498 C1106.96712,197.400603 1169.08133,133 1254.53867,133 Z M712.765067,133.922794 C753.028833,133.922794 787.371335,146.553541 815.398464,169.053517 L783.818852,214.841689 C759.344206,197.868866 735.265043,187.605526 711.975474,187.605526 C688.685904,187.605526 676.449268,198.262976 676.449268,211.683316 L676.449268,212.472909 C676.449268,230.630809 688.290421,236.550699 736.054636,248.787335 C792.108895,263.392751 823.688507,283.523947 823.688507,331.679526 L823.688507,332.46912 C823.688507,387.336928 781.845555,418.124201 722.238813,418.124201 C680.395861,418.124201 638.158799,403.520158 605,373.915215 L640.921689,330.889933 C665.790445,351.416612 691.844278,364.442842 723.422517,364.442842 C748.291273,364.442842 763.292172,354.573612 763.292172,338.390383 L763.292172,337.600789 C763.292172,322.207153 753.818426,314.312593 707.633397,302.470067 C651.974622,288.260134 616.052933,272.866498 616.052933,217.998689 L616.052933,217.209096 C616.052933,167.08022 656.316699,133.922794 712.765067,133.922794 Z M1910.66874,137.613971 L1910.66874,318.562665 C1910.66874,385.727531 1871.20555,418.124201 1812.80036,418.124201 C1769.78607,418.124201 1741.37307,399.16023 1722.43107,376.641029 L1760.71055,333.971407 C1776.49555,351.354818 1791.88507,361.62777 1811.22255,361.62777 C1834.11114,361.62777 1848.31696,347.799589 1848.31696,315.797029 L1848.31696,199.435694 L1757.4945,199.437067 L1757.4945,137.613971 L1910.66874,137.613971 Z M1082.05305,137.613971 L1082.05305,193.768474 L998.01423,193.768474 L998.01423,414.434397 L937.253995,414.434397 L937.253995,193.768474 L853.215177,193.768474 L853.215177,137.613971 L1082.05305,137.613971 Z M1579.39933,137.613971 C1644.57854,137.613971 1683.68469,172.018268 1683.68469,228.963737 L1683.68469,229.754703 C1683.68469,274.441565 1659.58905,302.519502 1624.43224,315.569077 L1691.98023,414.434397 L1620.87701,414.434397 L1561.62318,325.851641 L1513.82601,325.851641 L1513.82601,414.434397 L1452.993,414.434397 L1452.993,137.613971 L1579.39933,137.613971 Z M1253.74771,189.28633 C1204.67208,189.28633 1170.6358,227.92422 1170.6358,275.235278 L1170.6358,276.023498 C1170.6358,323.334555 1205.46305,362.760665 1254.53867,362.760665 C1303.6143,362.760665 1337.65058,324.122775 1337.65058,276.811718 L1337.65058,276.023498 C1337.65058,228.71244 1302.82333,189.28633 1253.74771,189.28633 Z M1574.17703,192.977507 L1513.8933,192.977507 L1513.8933,272.332321 L1575.35936,272.332321 C1604.91075,272.332321 1621.85336,256.540455 1621.85336,233.248139 L1621.85336,232.458545 C1621.85336,206.400593 1603.72842,192.977507 1574.17703,192.977507 Z" id="Clip-45" fill="#091C45"></path>
        </g>
    </g>
</svg>