<svg id="visual" viewBox="0 0 1920 1080" width="1920" height="1080" xmlns="http://www.w3.org/2000/svg" xmlns:xlink="http://www.w3.org/1999/xlink" version="1.1"><rect x="0" y="0" width="1920" height="1080" fill="#FFFFFF"></rect><path d="M387 0L434.8 25.7C482.7 51.3 578.3 102.7 646 154.2C713.7 205.7 753.3 257.3 741.3 308.8C729.3 360.3 665.7 411.7 628.5 463C591.3 514.3 580.7 565.7 530.8 617C481 668.3 392 719.7 401.2 771.2C410.3 822.7 517.7 874.3 575 925.8C632.3 977.3 639.7 1028.7 643.3 1054.3L647 1080L0 1080L0 1054.3C0 1028.7 0 977.3 0 925.8C0 874.3 0 822.7 0 771.2C0 719.7 0 668.3 0 617C0 565.7 0 514.3 0 463C0 411.7 0 360.3 0 308.8C0 257.3 0 205.7 0 154.2C0 102.7 0 51.3 0 25.7L0 0Z" fill="#715DF2" stroke-linecap="round" stroke-linejoin="miter"></path></svg>